# xmcd
#
# Track frame offsets: 
#        150
#        19475
#        42937
#        64275
#        84252
#        99687
#        120097
#        136087
#        153897
#
# Disc length: 2250 seconds
#
# Revision: 1
# Processed by: cddbd v1.5.2PL0 Copyright (c) Steve Scherf et al.
# Submitted via: ExactAudioCopy v1.3
#
DISCID=6808c809
DTITLE=Charlie Daniels Band - Full Moon
DYEAR=1980
DGENRE=Country
TTITLE0=The Legend Of Wooley Swamp
TTITLE1=Carolina (I Remember You)
TTITLE2=Lonesome Boy From Dixie
TTITLE3=No Potion For The Pain
TTITLE4=El Toreador
TTITLE5=South Sea Song
TTITLE6=Dance, Gypsy, Dance
TTITLE7=Money
TTITLE8=In America
EXTD=YEAR: 1980
EXTT0=
EXTT1=
EXTT2=
EXTT3=
EXTT4=
EXTT5=
EXTT6=
EXTT7=
EXTT8=
PLAYORDER=
